<?xml version="1.0" encoding="UTF-8"?>
<svg xmlns="http://www.w3.org/2000/svg" width="16" height="16" viewBox="0 0 16 16">
  <g fill="none">
    <path stroke="#F44336" stroke-linecap="round" stroke-width="1" d="M14.389 4.931a3.668 3.668 0 0 0-6.778 0" />
    <path stroke="#F44336" stroke-linecap="round" stroke-width="1" d="M12.92 5.772a2.001 2.001 0 0 0-3.84 0" />
    <path fill="#F44336"
      d="M4.667 10.667a.667.667 0 1 1-1.334 0 .667.667 0 0 1 1.334 0Zm2 0a.667.667 0 1 1-1.334 0 .667.667 0 0 1 1.334 0Z" />
    <path stroke="#F44336" stroke-width="1"
      d="M1.333 10.667c0-1.257 0-1.885.391-2.276.39-.39 1.019-.39 2.276-.39h8c1.257 0 1.885 0 2.276.39.39.391.39 1.02.39 2.276 0 1.257 0 1.885-.39 2.276-.391.39-1.02.39-2.276.39H4c-1.257 0-1.885 0-2.276-.39-.39-.391-.39-1.02-.39-2.276Z" />
    <path stroke="#F44336" stroke-linecap="round" stroke-width="1" d="M11 8V6" />
  </g>
</svg>